0
SECTION
2
HEADER
9
$INSUNITS
70
4
9
$ACADVER
1
AC1014
9
$HANDSEED
5
FFFF
0
ENDSEC
0
SECTION
2
TABLES
0
TABLE
2
VPORT
5
8
100
AcDbSymbolTable
0
ENDTAB
0
TABLE
2
LTYPE
5
5
100
AcDbSymbolTable
0
LTYPE
5
14
100
AcDbSymbolTableRecord
100
AcDbLinetypeTableRecord
2
BYBLOCK
70
0
0
LTYPE
5
15
100
AcDbSymbolTableRecord
100
AcDbLinetypeTableRecord
2
BYLAYER
70
0
0
ENDTAB
0
TABLE
2
LAYER
5
2
100
AcDbSymbolTable
70
2
0
LAYER
5
50
100
AcDbSymbolTableRecord
100
AcDbLayerTableRecord
2
0
70
0
6
CONTINUOUS
0
ENDTAB
0
TABLE
2
STYLE
5
3
100
AcDbSymbolTable
70
1
0
STYLE
5
11
100
AcDbSymbolTableRecord
100
AcDbTextStyleTableRecord
2
STANDARD
70
0
0
ENDTAB
0
TABLE
2
VIEW
5
6
100
AcDbSymbolTable
70
0
0
ENDTAB
0
TABLE
2
UCS
5
7
100
AcDbSymbolTable
70
0
0
ENDTAB
0
TABLE
2
APPID
5
9
100
AcDbSymbolTable
70
2
0
APPID
5
12
100
AcDbSymbolTableRecord
100
AcDbRegAppTableRecord
2
ACAD
70
0
0
ENDTAB
0
TABLE
2
DIMSTYLE
5
A
100
AcDbSymbolTable
70
1
0
ENDTAB
0
TABLE
2
BLOCK_RECORD
5
1
100
AcDbSymbolTable
70
1
0
BLOCK_RECORD
5
1F
100
AcDbSymbolTableRecord
100
AcDbBlockTableRecord
2
*MODEL_SPACE
0
BLOCK_RECORD
5
1B
100
AcDbSymbolTableRecord
100
AcDbBlockTableRecord
2
*PAPER_SPACE
0
ENDTAB
0
ENDSEC
0
SECTION
2
BLOCKS
0
BLOCK
5
20
100
AcDbEntity
100
AcDbBlockBegin
2
*MODEL_SPACE
0
ENDBLK
5
21
100
AcDbEntity
100
AcDbBlockEnd
0
BLOCK
5
1C
100
AcDbEntity
100
AcDbBlockBegin
2
*PAPER_SPACE
0
ENDBLK
5
1D
100
AcDbEntity
100
AcDbBlockEnd
0
ENDSEC
0
SECTION
2
ENTITIES
0
LWPOLYLINE
5
100
100
AcDbEntity
8
0
100
AcDbPolyline
90
51
70
1
43
0.0
10
-10.356139068784254
20
-34.074999999999996
10
-19.050000000000001
20
-34.074999999999996
10
-28.574999999999999
20
-34.074999999999996
42
0.41421356237309509
10
-29.074999999999996
20
-34.574999999999996
10
-29.074999999999992
20
-45.57500000000001
42
-0.4142135623730977
10
-29.574999999999996
20
-46.07500000000001
10
-38.100000000000001
20
-46.07500000000001
10
-46.625000000000007
20
-46.07500000000001
42
-0.41421356237309509
10
-47.125
20
-45.57500000000001
10
-47.125
20
9.5749999999999957
42
-0.4142135623731002
10
-46.625000000000007
20
10.075000000000001
10
-38.100000000000001
20
10.075000000000001
10
-28.574999999999999
20
10.075000000000001
42
0.41421356237309637
10
-28.075000000000003
20
10.575000000000001
10
-28.075000000000003
20
21.575000000000006
42
-0.41421356237309509
10
-27.575000000000003
20
22.075000000000003
10
-19.050000000000001
20
22.075000000000003
10
-9.5249999999999986
20
22.075000000000003
42
0.41421356237309637
10
-9.0250000000000004
20
22.575000000000003
10
-9.0250000000000004
20
27.575000000000003
42
-0.41421356237309637
10
-8.5250000000000004
20
28.075000000000003
10
0
20
28.075000000000003
10
8.5250000000000021
20
28.075000000000003
42
-0.4142135623730957
10
9.0250000000000004
20
27.575000000000003
10
9.0250000000000004
20
22.075000000000003
42
0.41421356237309698
10
9.5250000000000021
20
21.575000000000006
10
19.050000000000004
20
21.575000000000006
10
27.575000000000003
20
21.575000000000006
42
-0.41421356237309509
10
28.075000000000003
20
21.07500000000001
10
28.075000000000003
20
19.57500000000001
42
0.41421356237309637
10
28.574999999999999
20
19.07500000000001
10
38.100000000000009
20
19.07500000000001
10
46.625000000000007
20
19.075000000000006
42
-0.41421356237309509
10
47.125
20
18.57500000000001
10
47.125
20
18.075000002500005
42
0.41424285200726246
10
47.625050000015243
20
17.57500000500001
10
68.043054660846281
20
17.57280377589311
42
-0.4141820581465277
10
68.543000879168531
20
17.07280377878558
10
68.543000879168531
20
-36.280537748708632
42
-0.13165249758739425
10
67.471204109444031
20
-40.280537748708625
10
51.776549231008111
20
-67.464477405418549
42
-0.41421356237307183
10
51.093536529115873
20
-67.647490107310773
10
35.632799601880237
20
-58.721229480501329
42
0.06554346281521839
10
35.150437692085333
20
-58.521428635492086
10
26.140744017954638
20
-56.10728849145697
10
17.131050343823958
20
-53.693148347421854
42
0.065543462815214087
10
16.613412253618915
20
-53.625
10
7.2858910000000021
20
-53.625
10
-1.4079699312157448
20
-53.625
42
-0.30111467390644114
10
-1.8683289334755193
20
-53.320114297370502
10
-9.8957800665244804
20
-34.379885702629494
42
0.30111467390643737
0
LINE
5
101
100
AcDbEntity
8
0
100
AcDbLine
10
58.420299231008087
20
-55.957164852632808
30
0
11
51.776549231008111
21
-67.464477405418549
31
0
0
CIRCLE
5
102
100
AcDbEntity
8
0
100
AcDbCircle
10
-26.670000000000002
20
3.556
30
0
40
1
210
0
220
0
230
1
0
CIRCLE
5
103
100
AcDbEntity
8
0
100
AcDbCircle
10
-26.670000000000002
20
-15.494000000000002
30
0
40
0.99999999999999978
210
0
220
0
230
1
0
CIRCLE
5
104
100
AcDbEntity
8
0
100
AcDbCircle
10
28.066999999999993
20
3.4289999999999998
30
0
40
1.0000000000000009
210
0
220
0
230
1
0
CIRCLE
5
105
100
AcDbEntity
8
0
100
AcDbCircle
10
40.259
20
-46.735999999999997
30
0
40
1.0000000000000009
210
0
220
0
230
1
0
CIRCLE
5
106
100
AcDbEntity
8
0
100
AcDbCircle
10
-2.9209999999999958
20
-36.703000000000003
30
0
40
0.99999999999999967
210
0
220
0
230
1
0
ENDSEC
0
SECTION
2
OBJECTS
0
DICTIONARY
5
C
100
AcDbDictionary
3
ACAD_GROUP
350
D
3
ACAD_MLINESTYLE
350
17
0
DICTIONARY
5
D
100
AcDbDictionary
0
DICTIONARY
5
1A
330
C
100
AcDbDictionary
0
DICTIONARY
5
17
100
AcDbDictionary
0
ENDSEC
0
EOF
