0
SECTION
2
HEADER
9
$INSUNITS
70
4
9
$ACADVER
1
AC1014
9
$HANDSEED
5
FFFF
0
ENDSEC
0
SECTION
2
TABLES
0
TABLE
2
VPORT
5
8
100
AcDbSymbolTable
0
ENDTAB
0
TABLE
2
LTYPE
5
5
100
AcDbSymbolTable
0
LTYPE
5
14
100
AcDbSymbolTableRecord
100
AcDbLinetypeTableRecord
2
BYBLOCK
70
0
0
LTYPE
5
15
100
AcDbSymbolTableRecord
100
AcDbLinetypeTableRecord
2
BYLAYER
70
0
0
ENDTAB
0
TABLE
2
LAYER
5
2
100
AcDbSymbolTable
70
2
0
LAYER
5
50
100
AcDbSymbolTableRecord
100
AcDbLayerTableRecord
2
0
70
0
6
CONTINUOUS
0
ENDTAB
0
TABLE
2
STYLE
5
3
100
AcDbSymbolTable
70
1
0
STYLE
5
11
100
AcDbSymbolTableRecord
100
AcDbTextStyleTableRecord
2
STANDARD
70
0
0
ENDTAB
0
TABLE
2
VIEW
5
6
100
AcDbSymbolTable
70
0
0
ENDTAB
0
TABLE
2
UCS
5
7
100
AcDbSymbolTable
70
0
0
ENDTAB
0
TABLE
2
APPID
5
9
100
AcDbSymbolTable
70
2
0
APPID
5
12
100
AcDbSymbolTableRecord
100
AcDbRegAppTableRecord
2
ACAD
70
0
0
ENDTAB
0
TABLE
2
DIMSTYLE
5
A
100
AcDbSymbolTable
70
1
0
ENDTAB
0
TABLE
2
BLOCK_RECORD
5
1
100
AcDbSymbolTable
70
1
0
BLOCK_RECORD
5
1F
100
AcDbSymbolTableRecord
100
AcDbBlockTableRecord
2
*MODEL_SPACE
0
BLOCK_RECORD
5
1B
100
AcDbSymbolTableRecord
100
AcDbBlockTableRecord
2
*PAPER_SPACE
0
ENDTAB
0
ENDSEC
0
SECTION
2
BLOCKS
0
BLOCK
5
20
100
AcDbEntity
100
AcDbBlockBegin
2
*MODEL_SPACE
0
ENDBLK
5
21
100
AcDbEntity
100
AcDbBlockEnd
0
BLOCK
5
1C
100
AcDbEntity
100
AcDbBlockBegin
2
*PAPER_SPACE
0
ENDBLK
5
1D
100
AcDbEntity
100
AcDbBlockEnd
0
ENDSEC
0
SECTION
2
ENTITIES
0
LINE
5
100
100
AcDbEntity
8
0
100
AcDbLine
10
9.5250000000000021
20
-9.5250000000000021
30
0
11
-9.5250000000000021
21
-9.5250000000000021
31
0
0
LINE
5
101
100
AcDbEntity
8
0
100
AcDbLine
10
-9.5250000000000021
20
-9.5250000000000021
30
0
11
-9.5250000000000021
21
9.5250000000000021
31
0
0
LINE
5
102
100
AcDbEntity
8
0
100
AcDbLine
10
-9.5250000000000021
20
9.5250000000000021
30
0
11
9.5250000000000021
21
9.5250000000000021
31
0
0
LINE
5
103
100
AcDbEntity
8
0
100
AcDbLine
10
9.5250000000000021
20
9.5250000000000021
30
0
11
9.5250000000000021
21
-9.5250000000000021
31
0
0
LINE
5
104
100
AcDbEntity
8
0
100
AcDbLine
10
9.5250000000000021
20
-9.5250000000000021
30
0
11
-9.5250000000000021
21
9.5250000000000021
31
0
0
LINE
5
105
100
AcDbEntity
8
0
100
AcDbLine
10
-9.5250000000000021
20
-9.5250000000000021
30
0
11
9.5250000000000021
21
9.5250000000000021
31
0
0
LINE
5
106
100
AcDbEntity
8
0
100
AcDbLine
10
-9.5250000000000021
20
-9.5250000000000021
30
0
11
9.5250000000000021
21
-9.5250000000000021
31
0
0
LINE
5
107
100
AcDbEntity
8
0
100
AcDbLine
10
9.5250000000000021
20
-9.5250000000000021
30
0
11
9.5250000000000021
21
-28.574999999999999
31
0
0
LINE
5
108
100
AcDbEntity
8
0
100
AcDbLine
10
9.5250000000000021
20
-28.574999999999999
30
0
11
-9.5250000000000021
21
-28.574999999999999
31
0
0
LINE
5
109
100
AcDbEntity
8
0
100
AcDbLine
10
-9.5250000000000021
20
-28.574999999999999
30
0
11
-9.5250000000000021
21
-9.5250000000000021
31
0
0
LINE
5
110
100
AcDbEntity
8
0
100
AcDbLine
10
-9.5250000000000021
20
9.5250000000000021
30
0
11
9.5250000000000021
21
9.5250000000000021
31
0
0
LINE
5
111
100
AcDbEntity
8
0
100
AcDbLine
10
9.5250000000000021
20
9.5250000000000021
30
0
11
9.5250000000000021
21
28.575000000000003
31
0
0
LINE
5
112
100
AcDbEntity
8
0
100
AcDbLine
10
9.5250000000000021
20
28.575000000000003
30
0
11
-9.5250000000000021
21
28.575000000000003
31
0
0
LINE
5
113
100
AcDbEntity
8
0
100
AcDbLine
10
-9.5250000000000021
20
28.575000000000003
30
0
11
-9.5250000000000021
21
9.5250000000000021
31
0
0
LINE
5
114
100
AcDbEntity
8
0
100
AcDbLine
10
-9.5250000000000021
20
-34.575000000000003
30
0
11
-28.574999999999999
21
-34.575000000000003
31
0
0
LINE
5
115
100
AcDbEntity
8
0
100
AcDbLine
10
-28.574999999999999
20
-34.575000000000003
30
0
11
-28.574999999999999
21
-15.524999999999999
31
0
0
LINE
5
116
100
AcDbEntity
8
0
100
AcDbLine
10
-28.574999999999999
20
-15.524999999999999
30
0
11
-9.5250000000000021
21
-15.524999999999999
31
0
0
LINE
5
117
100
AcDbEntity
8
0
100
AcDbLine
10
-9.5250000000000021
20
-15.524999999999999
30
0
11
-9.5250000000000021
21
-34.575000000000003
31
0
0
LINE
5
118
100
AcDbEntity
8
0
100
AcDbLine
10
-9.5250000000000021
20
-15.524999999999999
30
0
11
-28.574999999999999
21
-15.524999999999999
31
0
0
LINE
5
119
100
AcDbEntity
8
0
100
AcDbLine
10
-28.574999999999999
20
-15.524999999999999
30
0
11
-28.574999999999999
21
3.5250000000000048
31
0
0
LINE
5
120
100
AcDbEntity
8
0
100
AcDbLine
10
-28.574999999999999
20
3.5250000000000048
30
0
11
-9.5250000000000021
21
3.5250000000000048
31
0
0
LINE
5
121
100
AcDbEntity
8
0
100
AcDbLine
10
-9.5250000000000021
20
3.5250000000000048
30
0
11
-9.5250000000000021
21
-15.524999999999999
31
0
0
LINE
5
122
100
AcDbEntity
8
0
100
AcDbLine
10
-28.574999999999999
20
3.5250000000000048
30
0
11
-9.5250000000000021
21
3.5250000000000048
31
0
0
LINE
5
123
100
AcDbEntity
8
0
100
AcDbLine
10
-9.5250000000000021
20
3.5250000000000048
30
0
11
-9.5250000000000021
21
22.575000000000003
31
0
0
LINE
5
124
100
AcDbEntity
8
0
100
AcDbLine
10
-9.5250000000000021
20
22.575000000000003
30
0
11
-28.574999999999999
21
22.575000000000003
31
0
0
LINE
5
125
100
AcDbEntity
8
0
100
AcDbLine
10
-28.574999999999999
20
22.575000000000003
30
0
11
-28.574999999999999
21
3.5250000000000048
31
0
0
LINE
5
126
100
AcDbEntity
8
0
100
AcDbLine
10
-28.574999999999999
20
-46.575000000000003
30
0
11
-47.625
21
-46.575000000000003
31
0
0
LINE
5
127
100
AcDbEntity
8
0
100
AcDbLine
10
-47.625
20
-46.575000000000003
30
0
11
-47.625
21
-27.525000000000006
31
0
0
LINE
5
128
100
AcDbEntity
8
0
100
AcDbLine
10
-47.625
20
-27.525000000000006
30
0
11
-28.574999999999999
21
-27.525000000000006
31
0
0
LINE
5
129
100
AcDbEntity
8
0
100
AcDbLine
10
-28.574999999999999
20
-27.525000000000006
30
0
11
-28.574999999999999
21
-46.575000000000003
31
0
0
LINE
5
130
100
AcDbEntity
8
0
100
AcDbLine
10
-47.625
20
-27.525000000000006
30
0
11
-28.574999999999999
21
-27.525000000000006
31
0
0
LINE
5
131
100
AcDbEntity
8
0
100
AcDbLine
10
-28.574999999999999
20
-27.525000000000006
30
0
11
-28.574999999999999
21
-8.4750000000000014
31
0
0
LINE
5
132
100
AcDbEntity
8
0
100
AcDbLine
10
-28.574999999999999
20
-8.4750000000000014
30
0
11
-47.625
21
-8.4750000000000014
31
0
0
LINE
5
133
100
AcDbEntity
8
0
100
AcDbLine
10
-47.625
20
-8.4750000000000014
30
0
11
-47.625
21
-27.525000000000006
31
0
0
LINE
5
134
100
AcDbEntity
8
0
100
AcDbLine
10
-47.625
20
-8.4750000000000014
30
0
11
-28.574999999999999
21
-8.4750000000000014
31
0
0
LINE
5
135
100
AcDbEntity
8
0
100
AcDbLine
10
-28.574999999999999
20
-8.4750000000000014
30
0
11
-28.574999999999999
21
10.575000000000001
31
0
0
LINE
5
136
100
AcDbEntity
8
0
100
AcDbLine
10
-28.574999999999999
20
10.575000000000001
30
0
11
-47.625
21
10.575000000000001
31
0
0
LINE
5
137
100
AcDbEntity
8
0
100
AcDbLine
10
-47.625
20
10.575000000000001
30
0
11
-47.625
21
-8.4750000000000014
31
0
0
LINE
5
138
100
AcDbEntity
8
0
100
AcDbLine
10
9.5250000000000021
20
-35.074999999999996
30
0
11
28.575000000000003
21
-35.074999999999996
31
0
0
LINE
5
139
100
AcDbEntity
8
0
100
AcDbLine
10
28.575000000000003
20
-35.074999999999996
30
0
11
28.575000000000003
21
-16.024999999999995
31
0
0
LINE
5
140
100
AcDbEntity
8
0
100
AcDbLine
10
28.575000000000003
20
-16.024999999999995
30
0
11
9.5250000000000021
21
-16.024999999999995
31
0
0
LINE
5
141
100
AcDbEntity
8
0
100
AcDbLine
10
9.5250000000000021
20
-16.024999999999995
30
0
11
9.5250000000000021
21
-35.074999999999996
31
0
0
LINE
5
142
100
AcDbEntity
8
0
100
AcDbLine
10
28.575000000000003
20
-16.024999999999995
30
0
11
9.5250000000000021
21
-16.024999999999995
31
0
0
LINE
5
143
100
AcDbEntity
8
0
100
AcDbLine
10
9.5250000000000021
20
-16.024999999999995
30
0
11
9.5250000000000021
21
3.0250000000000066
31
0
0
LINE
5
144
100
AcDbEntity
8
0
100
AcDbLine
10
9.5250000000000021
20
3.0250000000000066
30
0
11
28.575000000000003
21
3.0250000000000066
31
0
0
LINE
5
145
100
AcDbEntity
8
0
100
AcDbLine
10
28.575000000000003
20
3.0250000000000066
30
0
11
28.575000000000003
21
-16.024999999999995
31
0
0
LINE
5
146
100
AcDbEntity
8
0
100
AcDbLine
10
28.575000000000003
20
3.0250000000000066
30
0
11
9.5250000000000021
21
3.0250000000000066
31
0
0
LINE
5
147
100
AcDbEntity
8
0
100
AcDbLine
10
9.5250000000000021
20
3.0250000000000066
30
0
11
9.5250000000000021
21
22.075000000000003
31
0
0
LINE
5
148
100
AcDbEntity
8
0
100
AcDbLine
10
9.5250000000000021
20
22.075000000000003
30
0
11
28.575000000000003
21
22.075000000000003
31
0
0
LINE
5
149
100
AcDbEntity
8
0
100
AcDbLine
10
28.575000000000003
20
22.075000000000003
30
0
11
28.575000000000003
21
3.0250000000000066
31
0
0
LINE
5
150
100
AcDbEntity
8
0
100
AcDbLine
10
28.575000000000003
20
-37.574999999999996
30
0
11
47.625
21
-37.574999999999996
31
0
0
LINE
5
151
100
AcDbEntity
8
0
100
AcDbLine
10
47.625
20
-37.574999999999996
30
0
11
47.625
21
-18.524999999999995
31
0
0
LINE
5
152
100
AcDbEntity
8
0
100
AcDbLine
10
47.625
20
-18.524999999999995
30
0
11
28.575000000000003
21
-18.524999999999995
31
0
0
LINE
5
153
100
AcDbEntity
8
0
100
AcDbLine
10
28.575000000000003
20
-18.524999999999995
30
0
11
28.575000000000003
21
-37.574999999999996
31
0
0
LINE
5
154
100
AcDbEntity
8
0
100
AcDbLine
10
47.625
20
-18.524999999999995
30
0
11
28.575000000000003
21
-18.524999999999995
31
0
0
LINE
5
155
100
AcDbEntity
8
0
100
AcDbLine
10
28.575000000000003
20
-18.524999999999995
30
0
11
28.575000000000003
21
0.52500000000000657
31
0
0
LINE
5
156
100
AcDbEntity
8
0
100
AcDbLine
10
28.575000000000003
20
0.52500000000000657
30
0
11
47.625
21
0.52500000000000657
31
0
0
LINE
5
157
100
AcDbEntity
8
0
100
AcDbLine
10
47.625
20
0.52500000000000657
30
0
11
47.625
21
-18.524999999999995
31
0
0
LINE
5
158
100
AcDbEntity
8
0
100
AcDbLine
10
47.625
20
0.52500000000000657
30
0
11
28.575000000000003
21
0.52500000000000657
31
0
0
LINE
5
159
100
AcDbEntity
8
0
100
AcDbLine
10
28.575000000000003
20
0.52500000000000657
30
0
11
28.575000000000003
21
19.57500000000001
31
0
0
LINE
5
160
100
AcDbEntity
8
0
100
AcDbLine
10
28.575000000000003
20
19.57500000000001
30
0
11
47.625
21
19.57500000000001
31
0
0
LINE
5
161
100
AcDbEntity
8
0
100
AcDbLine
10
47.625
20
19.57500000000001
30
0
11
47.625
21
0.52500000000000657
31
0
0
LINE
5
162
100
AcDbEntity
8
0
100
AcDbLine
10
-2.2391089999999991
20
-35.074999999999996
30
0
11
16.810891000000005
21
-35.074999999999996
31
0
0
LINE
5
163
100
AcDbEntity
8
0
100
AcDbLine
10
16.810891000000005
20
-35.074999999999996
30
0
11
16.810891000000005
21
-54.125
31
0
0
LINE
5
164
100
AcDbEntity
8
0
100
AcDbLine
10
16.810891000000005
20
-54.125
30
0
11
-2.2391089999999991
21
-54.125
31
0
0
LINE
5
165
100
AcDbEntity
8
0
100
AcDbLine
10
-2.2391089999999991
20
-54.125
30
0
11
-2.2391089999999991
21
-35.074999999999996
31
0
0
LINE
5
166
100
AcDbEntity
8
0
100
AcDbLine
10
16.810891000000005
20
-54.125
30
0
11
35.860891000000002
21
-54.125
31
0
0
LINE
5
167
100
AcDbEntity
8
0
100
AcDbLine
10
16.810891000000005
20
-54.125
30
0
11
35.211777990806752
21
-59.05550280920302
31
0
0
LINE
5
168
100
AcDbEntity
8
0
100
AcDbLine
10
35.211777990806752
20
-59.05550280920302
30
0
11
40.142280800009772
21
-40.654615818396273
31
0
0
LINE
5
169
100
AcDbEntity
8
0
100
AcDbLine
10
40.142280800009772
20
-40.654615818396273
30
0
11
21.741393809203025
21
-35.724113009193246
31
0
0
LINE
5
170
100
AcDbEntity
8
0
100
AcDbLine
10
21.741393809203025
20
-35.724113009193246
30
0
11
16.810891000000005
21
-54.125
31
0
0
LINE
5
171
100
AcDbEntity
8
0
100
AcDbLine
10
35.211777990806752
20
-59.05550280920302
30
0
11
51.709561932900321
21
-68.580502809202983
31
0
0
LINE
5
172
100
AcDbEntity
8
0
100
AcDbLine
10
35.211777990806752
20
-59.05550280920302
30
0
11
54.261777990806749
21
-59.05550280920302
31
0
0
LINE
5
173
100
AcDbEntity
8
0
100
AcDbLine
10
35.211777990806752
20
-59.05550280920302
30
0
11
51.709561932900321
21
-68.580502809202983
31
0
0
LINE
5
174
100
AcDbEntity
8
0
100
AcDbLine
10
51.709561932900321
20
-68.580502809202983
30
0
11
65.99706193290028
21
-43.833826896062632
31
0
0
LINE
5
175
100
AcDbEntity
8
0
100
AcDbLine
10
65.99706193290028
20
-43.833826896062632
30
0
11
49.499277990806704
21
-34.308826896062655
31
0
0
LINE
5
176
100
AcDbEntity
8
0
100
AcDbLine
10
49.499277990806704
20
-34.308826896062655
30
0
11
35.211777990806752
21
-59.05550280920302
31
0
0
LINE
5
177
100
AcDbEntity
8
0
100
AcDbLine
10
-9.5250000000000021
20
-9.5250000000000021
30
0
11
9.5250000000000021
21
-28.574999999999999
31
0
0
LINE
5
178
100
AcDbEntity
8
0
100
AcDbLine
10
9.5250000000000021
20
-9.5250000000000021
30
0
11
-9.5250000000000021
21
-28.574999999999999
31
0
0
LINE
5
179
100
AcDbEntity
8
0
100
AcDbLine
10
-9.5250000000000021
20
-15.524999999999999
30
0
11
-28.574999999999999
21
-34.575000000000003
31
0
0
LINE
5
180
100
AcDbEntity
8
0
100
AcDbLine
10
-9.5250000000000021
20
-34.575000000000003
30
0
11
-28.574999999999999
21
-15.524999999999999
31
0
0
LINE
5
181
100
AcDbEntity
8
0
100
AcDbLine
10
-28.574999999999999
20
-27.525000000000006
30
0
11
-47.625
21
-46.575000000000003
31
0
0
LINE
5
182
100
AcDbEntity
8
0
100
AcDbLine
10
-28.574999999999999
20
-46.575000000000003
30
0
11
-47.625
21
-27.525000000000006
31
0
0
LINE
5
183
100
AcDbEntity
8
0
100
AcDbLine
10
-47.625
20
-27.525000000000006
30
0
11
-28.574999999999999
21
-8.4750000000000014
31
0
0
LINE
5
184
100
AcDbEntity
8
0
100
AcDbLine
10
-28.574999999999999
20
-27.525000000000006
30
0
11
-47.625
21
-8.4750000000000014
31
0
0
LINE
5
185
100
AcDbEntity
8
0
100
AcDbLine
10
-47.625
20
-8.4750000000000014
30
0
11
-28.574999999999999
21
10.575000000000001
31
0
0
LINE
5
186
100
AcDbEntity
8
0
100
AcDbLine
10
-28.574999999999999
20
-8.4750000000000014
30
0
11
-47.625
21
10.575000000000001
31
0
0
LINE
5
187
100
AcDbEntity
8
0
100
AcDbLine
10
-28.574999999999999
20
-15.524999999999999
30
0
11
-9.5250000000000021
21
3.5250000000000048
31
0
0
LINE
5
188
100
AcDbEntity
8
0
100
AcDbLine
10
-9.5250000000000021
20
-15.524999999999999
30
0
11
-28.574999999999999
21
3.5250000000000048
31
0
0
LINE
5
189
100
AcDbEntity
8
0
100
AcDbLine
10
-28.574999999999999
20
3.5250000000000048
30
0
11
-9.5250000000000021
21
22.575000000000003
31
0
0
LINE
5
190
100
AcDbEntity
8
0
100
AcDbLine
10
-9.5250000000000021
20
3.5250000000000048
30
0
11
-28.574999999999999
21
22.575000000000003
31
0
0
LINE
5
191
100
AcDbEntity
8
0
100
AcDbLine
10
-9.5250000000000021
20
9.5250000000000021
30
0
11
9.5250000000000021
21
28.575000000000003
31
0
0
LINE
5
192
100
AcDbEntity
8
0
100
AcDbLine
10
9.5250000000000021
20
9.5250000000000021
30
0
11
-9.5250000000000021
21
28.575000000000003
31
0
0
LINE
5
193
100
AcDbEntity
8
0
100
AcDbLine
10
9.5250000000000021
20
3.0250000000000066
30
0
11
28.575000000000003
21
22.075000000000003
31
0
0
LINE
5
194
100
AcDbEntity
8
0
100
AcDbLine
10
28.575000000000003
20
3.0250000000000066
30
0
11
9.5250000000000021
21
22.075000000000003
31
0
0
LINE
5
195
100
AcDbEntity
8
0
100
AcDbLine
10
28.575000000000003
20
3.0250000000000066
30
0
11
9.5250000000000021
21
-16.024999999999995
31
0
0
LINE
5
196
100
AcDbEntity
8
0
100
AcDbLine
10
28.575000000000003
20
-16.024999999999995
30
0
11
9.5250000000000021
21
-35.074999999999996
31
0
0
LINE
5
197
100
AcDbEntity
8
0
100
AcDbLine
10
47.625
20
-18.524999999999995
30
0
11
28.575000000000003
21
-37.574999999999996
31
0
0
LINE
5
198
100
AcDbEntity
8
0
100
AcDbLine
10
47.625
20
-37.574999999999996
30
0
11
28.575000000000003
21
-18.524999999999995
31
0
0
LINE
5
199
100
AcDbEntity
8
0
100
AcDbLine
10
28.575000000000003
20
-35.074999999999996
30
0
11
9.5250000000000021
21
-16.024999999999995
31
0
0
LINE
5
200
100
AcDbEntity
8
0
100
AcDbLine
10
28.575000000000003
20
-16.024999999999995
30
0
11
9.5250000000000021
21
3.0250000000000066
31
0
0
LINE
5
201
100
AcDbEntity
8
0
100
AcDbLine
10
47.625
20
-18.524999999999995
30
0
11
28.575000000000003
21
0.52500000000000657
31
0
0
LINE
5
202
100
AcDbEntity
8
0
100
AcDbLine
10
28.575000000000003
20
-18.524999999999995
30
0
11
47.625
21
0.52500000000000657
31
0
0
LINE
5
203
100
AcDbEntity
8
0
100
AcDbLine
10
28.575000000000003
20
0.52500000000000657
30
0
11
47.625
21
19.57500000000001
31
0
0
LINE
5
204
100
AcDbEntity
8
0
100
AcDbLine
10
47.625
20
0.52500000000000657
30
0
11
28.575000000000003
21
19.57500000000001
31
0
0
LINE
5
205
100
AcDbEntity
8
0
100
AcDbLine
10
16.810891000000005
20
-35.074999999999996
30
0
11
-2.2391089999999991
21
-54.125
31
0
0
LINE
5
206
100
AcDbEntity
8
0
100
AcDbLine
10
16.810891000000005
20
-54.125
30
0
11
-2.2391089999999991
21
-35.074999999999996
31
0
0
LINE
5
207
100
AcDbEntity
8
0
100
AcDbLine
10
16.810891000000005
20
-54.125
30
0
11
40.142280800009772
21
-40.654615818396273
31
0
0
LINE
5
208
100
AcDbEntity
8
0
100
AcDbLine
10
35.211777990806752
20
-59.05550280920302
30
0
11
21.741393809203025
21
-35.724113009193246
31
0
0
LINE
5
209
100
AcDbEntity
8
0
100
AcDbLine
10
35.211777990806752
20
-59.05550280920302
30
0
11
65.99706193290028
21
-43.833826896062632
31
0
0
LINE
5
210
100
AcDbEntity
8
0
100
AcDbLine
10
51.709561932900321
20
-68.580502809202983
30
0
11
49.499277990806704
21
-34.308826896062655
31
0
0
LINE
5
211
100
AcDbEntity
8
0
100
AcDbLine
10
7.0000001043081284
20
-7.0000001043081284
30
0
11
-7.0000001043081284
21
-7.0000001043081284
31
0
0
LINE
5
212
100
AcDbEntity
8
0
100
AcDbLine
10
-7.0000001043081284
20
-7.0000001043081284
30
0
11
-7.0000001043081284
21
7.0000001043081284
31
0
0
LINE
5
213
100
AcDbEntity
8
0
100
AcDbLine
10
-7.0000001043081284
20
7.0000001043081284
30
0
11
7.0000001043081284
21
7.0000001043081284
31
0
0
LINE
5
214
100
AcDbEntity
8
0
100
AcDbLine
10
7.0000001043081284
20
7.0000001043081284
30
0
11
7.0000001043081284
21
-7.0000001043081284
31
0
0
LINE
5
215
100
AcDbEntity
8
0
100
AcDbLine
10
7.0000001043081284
20
-7.0000001043081284
30
0
11
-7.0000001043081284
21
7.0000001043081284
31
0
0
LINE
5
216
100
AcDbEntity
8
0
100
AcDbLine
10
-7.0000001043081284
20
-7.0000001043081284
30
0
11
7.0000001043081284
21
7.0000001043081284
31
0
0
LINE
5
217
100
AcDbEntity
8
0
100
AcDbLine
10
26.050000000000004
20
-13.499999999999996
30
0
11
12.050000000000001
21
-13.499999999999996
31
0
0
LINE
5
218
100
AcDbEntity
8
0
100
AcDbLine
10
12.050000000000001
20
-13.499999999999996
30
0
11
12.050000000000001
21
0.50000000000000711
31
0
0
LINE
5
219
100
AcDbEntity
8
0
100
AcDbLine
10
12.050000000000001
20
0.50000000000000711
30
0
11
26.050000000000004
21
0.50000000000000711
31
0
0
LINE
5
220
100
AcDbEntity
8
0
100
AcDbLine
10
26.050000000000004
20
0.50000000000000711
30
0
11
26.050000000000004
21
-13.499999999999996
31
0
0
LINE
5
221
100
AcDbEntity
8
0
100
AcDbLine
10
26.050000000000004
20
-13.499999999999996
30
0
11
12.050000000000001
21
0.50000000000000711
31
0
0
LINE
5
222
100
AcDbEntity
8
0
100
AcDbLine
10
12.050000000000001
20
-13.499999999999996
30
0
11
26.050000000000004
21
0.50000000000000711
31
0
0
LINE
5
223
100
AcDbEntity
8
0
100
AcDbLine
10
7
20
-26.050000000000001
30
0
11
-7
21
-26.050000000000001
31
0
0
LINE
5
224
100
AcDbEntity
8
0
100
AcDbLine
10
-7
20
-26.050000000000001
30
0
11
-7
21
-12.050000000000001
31
0
0
LINE
5
225
100
AcDbEntity
8
0
100
AcDbLine
10
-7
20
-12.050000000000001
30
0
11
7
21
-12.050000000000001
31
0
0
LINE
5
226
100
AcDbEntity
8
0
100
AcDbLine
10
7
20
-12.050000000000001
30
0
11
7
21
-26.050000000000001
31
0
0
LINE
5
227
100
AcDbEntity
8
0
100
AcDbLine
10
7
20
-26.050000000000001
30
0
11
-7
21
-12.050000000000001
31
0
0
LINE
5
228
100
AcDbEntity
8
0
100
AcDbLine
10
-7
20
-26.050000000000001
30
0
11
7
21
-12.050000000000001
31
0
0
LINE
5
229
100
AcDbEntity
8
0
100
AcDbLine
10
26.050000000000004
20
-32.549999999999997
30
0
11
12.050000000000001
21
-32.549999999999997
31
0
0
LINE
5
230
100
AcDbEntity
8
0
100
AcDbLine
10
12.050000000000001
20
-32.549999999999997
30
0
11
12.050000000000001
21
-18.549999999999997
31
0
0
LINE
5
231
100
AcDbEntity
8
0
100
AcDbLine
10
12.050000000000001
20
-18.549999999999997
30
0
11
26.050000000000004
21
-18.549999999999997
31
0
0
LINE
5
232
100
AcDbEntity
8
0
100
AcDbLine
10
26.050000000000004
20
-18.549999999999997
30
0
11
26.050000000000004
21
-32.549999999999997
31
0
0
LINE
5
233
100
AcDbEntity
8
0
100
AcDbLine
10
26.050000000000004
20
-32.549999999999997
30
0
11
12.050000000000001
21
-18.549999999999997
31
0
0
LINE
5
234
100
AcDbEntity
8
0
100
AcDbLine
10
12.050000000000001
20
-32.549999999999997
30
0
11
26.050000000000004
21
-18.549999999999997
31
0
0
LINE
5
235
100
AcDbEntity
8
0
100
AcDbLine
10
45.100000000000009
20
-35.049999999999997
30
0
11
31.100000000000001
21
-35.049999999999997
31
0
0
LINE
5
236
100
AcDbEntity
8
0
100
AcDbLine
10
31.100000000000001
20
-35.049999999999997
30
0
11
31.100000000000001
21
-21.049999999999997
31
0
0
LINE
5
237
100
AcDbEntity
8
0
100
AcDbLine
10
31.100000000000001
20
-21.049999999999997
30
0
11
45.100000000000009
21
-21.049999999999997
31
0
0
LINE
5
238
100
AcDbEntity
8
0
100
AcDbLine
10
45.100000000000009
20
-21.049999999999997
30
0
11
45.100000000000009
21
-35.049999999999997
31
0
0
LINE
5
239
100
AcDbEntity
8
0
100
AcDbLine
10
45.100000000000009
20
-35.049999999999997
30
0
11
31.100000000000001
21
-21.049999999999997
31
0
0
LINE
5
240
100
AcDbEntity
8
0
100
AcDbLine
10
31.100000000000001
20
-35.049999999999997
30
0
11
45.100000000000009
21
-21.049999999999997
31
0
0
LINE
5
241
100
AcDbEntity
8
0
100
AcDbLine
10
45.100000000000009
20
-15.999999999999996
30
0
11
31.100000000000001
21
-15.999999999999996
31
0
0
LINE
5
242
100
AcDbEntity
8
0
100
AcDbLine
10
31.100000000000001
20
-15.999999999999996
30
0
11
31.100000000000001
21
-1.9999999999999929
31
0
0
LINE
5
243
100
AcDbEntity
8
0
100
AcDbLine
10
31.100000000000001
20
-1.9999999999999929
30
0
11
45.100000000000009
21
-1.9999999999999929
31
0
0
LINE
5
244
100
AcDbEntity
8
0
100
AcDbLine
10
45.100000000000009
20
-1.9999999999999929
30
0
11
45.100000000000009
21
-15.999999999999996
31
0
0
LINE
5
245
100
AcDbEntity
8
0
100
AcDbLine
10
45.100000000000009
20
-15.999999999999996
30
0
11
31.100000000000001
21
-1.9999999999999929
31
0
0
LINE
5
246
100
AcDbEntity
8
0
100
AcDbLine
10
31.100000000000001
20
-15.999999999999996
30
0
11
45.100000000000009
21
-1.9999999999999929
31
0
0
LINE
5
247
100
AcDbEntity
8
0
100
AcDbLine
10
14.285891000000001
20
-51.600000000000001
30
0
11
0.28589100000000256
21
-51.600000000000001
31
0
0
LINE
5
248
100
AcDbEntity
8
0
100
AcDbLine
10
0.28589100000000256
20
-51.600000000000001
30
0
11
0.28589100000000256
21
-37.599999999999994
31
0
0
LINE
5
249
100
AcDbEntity
8
0
100
AcDbLine
10
0.28589100000000256
20
-37.599999999999994
30
0
11
14.285891000000001
21
-37.599999999999994
31
0
0
LINE
5
250
100
AcDbEntity
8
0
100
AcDbLine
10
14.285891000000001
20
-37.599999999999994
30
0
11
14.285891000000001
21
-51.600000000000001
31
0
0
LINE
5
251
100
AcDbEntity
8
0
100
AcDbLine
10
14.285891000000001
20
-51.600000000000001
30
0
11
0.28589100000000256
21
-37.599999999999994
31
0
0
LINE
5
252
100
AcDbEntity
8
0
100
AcDbLine
10
0.28589100000000256
20
-51.600000000000001
30
0
11
14.285891000000001
21
-37.599999999999994
31
0
0
LINE
5
253
100
AcDbEntity
8
0
100
AcDbLine
10
-12.050000000000001
20
-32.049999999999997
30
0
11
-26.050000000000001
21
-32.049999999999997
31
0
0
LINE
5
254
100
AcDbEntity
8
0
100
AcDbLine
10
-26.050000000000001
20
-32.049999999999997
30
0
11
-26.050000000000001
21
-18.049999999999997
31
0
0
LINE
5
255
100
AcDbEntity
8
0
100
AcDbLine
10
-26.050000000000001
20
-18.049999999999997
30
0
11
-12.050000000000001
21
-18.049999999999997
31
0
0
LINE
5
256
100
AcDbEntity
8
0
100
AcDbLine
10
-12.050000000000001
20
-18.049999999999997
30
0
11
-12.050000000000001
21
-32.049999999999997
31
0
0
LINE
5
257
100
AcDbEntity
8
0
100
AcDbLine
10
-12.050000000000001
20
-32.049999999999997
30
0
11
-26.050000000000001
21
-18.049999999999997
31
0
0
LINE
5
258
100
AcDbEntity
8
0
100
AcDbLine
10
-26.050000000000001
20
-32.049999999999997
30
0
11
-12.050000000000001
21
-18.049999999999997
31
0
0
LINE
5
259
100
AcDbEntity
8
0
100
AcDbLine
10
-12.050000000000001
20
-12.999999999999998
30
0
11
-26.050000000000001
21
-12.999999999999998
31
0
0
LINE
5
260
100
AcDbEntity
8
0
100
AcDbLine
10
-26.050000000000001
20
-12.999999999999998
30
0
11
-26.050000000000001
21
1.0000000000000053
31
0
0
LINE
5
261
100
AcDbEntity
8
0
100
AcDbLine
10
-26.050000000000001
20
1.0000000000000053
30
0
11
-12.050000000000001
21
1.0000000000000053
31
0
0
LINE
5
262
100
AcDbEntity
8
0
100
AcDbLine
10
-12.050000000000001
20
1.0000000000000053
30
0
11
-12.050000000000001
21
-12.999999999999998
31
0
0
LINE
5
263
100
AcDbEntity
8
0
100
AcDbLine
10
-12.050000000000001
20
-12.999999999999998
30
0
11
-26.050000000000001
21
1.0000000000000053
31
0
0
LINE
5
264
100
AcDbEntity
8
0
100
AcDbLine
10
-26.050000000000001
20
-12.999999999999998
30
0
11
-12.050000000000001
21
1.0000000000000053
31
0
0
LINE
5
265
100
AcDbEntity
8
0
100
AcDbLine
10
-12.050000000000001
20
6.0500000000000052
30
0
11
-26.050000000000001
21
6.0500000000000052
31
0
0
LINE
5
266
100
AcDbEntity
8
0
100
AcDbLine
10
-26.050000000000001
20
6.0500000000000052
30
0
11
-26.050000000000001
21
20.050000000000004
31
0
0
LINE
5
267
100
AcDbEntity
8
0
100
AcDbLine
10
-26.050000000000001
20
20.050000000000004
30
0
11
-12.050000000000001
21
20.050000000000004
31
0
0
LINE
5
268
100
AcDbEntity
8
0
100
AcDbLine
10
-12.050000000000001
20
20.050000000000004
30
0
11
-12.050000000000001
21
6.0500000000000052
31
0
0
LINE
5
269
100
AcDbEntity
8
0
100
AcDbLine
10
-12.050000000000001
20
6.0500000000000052
30
0
11
-26.050000000000001
21
20.050000000000004
31
0
0
LINE
5
270
100
AcDbEntity
8
0
100
AcDbLine
10
-26.050000000000001
20
6.0500000000000052
30
0
11
-12.050000000000001
21
20.050000000000004
31
0
0
LINE
5
271
100
AcDbEntity
8
0
100
AcDbLine
10
-31.099999999999998
20
-5.9500000000000011
30
0
11
-45.099999999999994
21
-5.9500000000000011
31
0
0
LINE
5
272
100
AcDbEntity
8
0
100
AcDbLine
10
-45.099999999999994
20
-5.9500000000000011
30
0
11
-45.099999999999994
21
8.0500000000000007
31
0
0
LINE
5
273
100
AcDbEntity
8
0
100
AcDbLine
10
-45.099999999999994
20
8.0500000000000007
30
0
11
-31.099999999999998
21
8.0500000000000007
31
0
0
LINE
5
274
100
AcDbEntity
8
0
100
AcDbLine
10
-31.099999999999998
20
8.0500000000000007
30
0
11
-31.099999999999998
21
-5.9500000000000011
31
0
0
LINE
5
275
100
AcDbEntity
8
0
100
AcDbLine
10
-31.099999999999998
20
-5.9500000000000011
30
0
11
-45.099999999999994
21
8.0500000000000007
31
0
0
LINE
5
276
100
AcDbEntity
8
0
100
AcDbLine
10
-45.099999999999994
20
-5.9500000000000011
30
0
11
-31.099999999999998
21
8.0500000000000007
31
0
0
LINE
5
277
100
AcDbEntity
8
0
100
AcDbLine
10
-31.099999999999998
20
-25.000000000000004
30
0
11
-45.099999999999994
21
-25.000000000000004
31
0
0
LINE
5
278
100
AcDbEntity
8
0
100
AcDbLine
10
-45.099999999999994
20
-25.000000000000004
30
0
11
-45.099999999999994
21
-11
31
0
0
LINE
5
279
100
AcDbEntity
8
0
100
AcDbLine
10
-45.099999999999994
20
-11
30
0
11
-31.099999999999998
21
-11
31
0
0
LINE
5
280
100
AcDbEntity
8
0
100
AcDbLine
10
-31.099999999999998
20
-11
30
0
11
-31.099999999999998
21
-25.000000000000004
31
0
0
LINE
5
281
100
AcDbEntity
8
0
100
AcDbLine
10
-31.099999999999998
20
-25.000000000000004
30
0
11
-45.099999999999994
21
-11
31
0
0
LINE
5
282
100
AcDbEntity
8
0
100
AcDbLine
10
-45.099999999999994
20
-25.000000000000004
30
0
11
-31.099999999999998
21
-11
31
0
0
LINE
5
283
100
AcDbEntity
8
0
100
AcDbLine
10
-31.099999999999998
20
-44.050000000000011
30
0
11
-45.099999999999994
21
-44.050000000000011
31
0
0
LINE
5
284
100
AcDbEntity
8
0
100
AcDbLine
10
-45.099999999999994
20
-44.050000000000011
30
0
11
-45.099999999999994
21
-30.049999999999997
31
0
0
LINE
5
285
100
AcDbEntity
8
0
100
AcDbLine
10
-45.099999999999994
20
-30.049999999999997
30
0
11
-31.099999999999998
21
-30.049999999999997
31
0
0
LINE
5
286
100
AcDbEntity
8
0
100
AcDbLine
10
-31.099999999999998
20
-30.049999999999997
30
0
11
-31.099999999999998
21
-44.050000000000011
31
0
0
LINE
5
287
100
AcDbEntity
8
0
100
AcDbLine
10
-31.099999999999998
20
-44.050000000000011
30
0
11
-45.099999999999994
21
-30.049999999999997
31
0
0
LINE
5
288
100
AcDbEntity
8
0
100
AcDbLine
10
-45.099999999999994
20
-44.050000000000011
30
0
11
-31.099999999999998
21
-30.049999999999997
31
0
0
LINE
5
289
100
AcDbEntity
8
0
100
AcDbLine
10
7.0000000000000009
20
12.050000000000001
30
0
11
-7.0000000000000009
21
12.050000000000001
31
0
0
LINE
5
290
100
AcDbEntity
8
0
100
AcDbLine
10
-7.0000000000000009
20
12.050000000000001
30
0
11
-7.0000000000000009
21
26.050000000000004
31
0
0
LINE
5
291
100
AcDbEntity
8
0
100
AcDbLine
10
-7.0000000000000009
20
26.050000000000004
30
0
11
7.0000000000000009
21
26.050000000000004
31
0
0
LINE
5
292
100
AcDbEntity
8
0
100
AcDbLine
10
7.0000000000000009
20
26.050000000000004
30
0
11
7.0000000000000009
21
12.050000000000001
31
0
0
LINE
5
293
100
AcDbEntity
8
0
100
AcDbLine
10
7.0000000000000009
20
12.050000000000001
30
0
11
-7.0000000000000009
21
26.050000000000004
31
0
0
LINE
5
294
100
AcDbEntity
8
0
100
AcDbLine
10
-7.0000000000000009
20
12.050000000000001
30
0
11
7.0000000000000009
21
26.050000000000004
31
0
0
LINE
5
295
100
AcDbEntity
8
0
100
AcDbLine
10
26.050000000000004
20
5.550000000000006
30
0
11
12.050000000000001
21
5.550000000000006
31
0
0
LINE
5
296
100
AcDbEntity
8
0
100
AcDbLine
10
12.050000000000001
20
5.550000000000006
30
0
11
12.050000000000001
21
19.550000000000004
31
0
0
LINE
5
297
100
AcDbEntity
8
0
100
AcDbLine
10
12.050000000000001
20
19.550000000000004
30
0
11
26.050000000000004
21
19.550000000000004
31
0
0
LINE
5
298
100
AcDbEntity
8
0
100
AcDbLine
10
26.050000000000004
20
19.550000000000004
30
0
11
26.050000000000004
21
5.550000000000006
31
0
0
LINE
5
299
100
AcDbEntity
8
0
100
AcDbLine
10
26.050000000000004
20
5.550000000000006
30
0
11
12.050000000000001
21
19.550000000000004
31
0
0
LINE
5
300
100
AcDbEntity
8
0
100
AcDbLine
10
12.050000000000001
20
5.550000000000006
30
0
11
26.050000000000004
21
19.550000000000004
31
0
0
LINE
5
301
100
AcDbEntity
8
0
100
AcDbLine
10
45.100000000000009
20
3.050000000000006
30
0
11
31.100000000000001
21
3.050000000000006
31
0
0
LINE
5
302
100
AcDbEntity
8
0
100
AcDbLine
10
31.100000000000001
20
3.050000000000006
30
0
11
31.100000000000001
21
17.050000000000011
31
0
0
LINE
5
303
100
AcDbEntity
8
0
100
AcDbLine
10
31.100000000000001
20
17.050000000000011
30
0
11
45.100000000000009
21
17.050000000000011
31
0
0
LINE
5
304
100
AcDbEntity
8
0
100
AcDbLine
10
45.100000000000009
20
17.050000000000011
30
0
11
45.100000000000009
21
3.050000000000006
31
0
0
LINE
5
305
100
AcDbEntity
8
0
100
AcDbLine
10
45.100000000000009
20
3.050000000000006
30
0
11
31.100000000000001
21
17.050000000000011
31
0
0
LINE
5
306
100
AcDbEntity
8
0
100
AcDbLine
10
31.100000000000001
20
3.050000000000006
30
0
11
45.100000000000009
21
17.050000000000011
31
0
0
LWPOLYLINE
5
307
100
AcDbEntity
8
0
100
AcDbPolyline
90
4
70
1
43
0.0
10
33.426333368310722
20
-55.963022008939269
10
19.903371800263766
20
-52.339555377503963
10
23.526838431699076
20
-38.816593809457004
10
37.049799999746035
20
-42.440060440892317
0
LWPOLYLINE
5
308
100
AcDbEntity
8
0
100
AcDbPolyline
90
4
70
1
43
0.0
10
53.166597788344617
20
-61.006842679123892
10
41.04224213536245
20
-54.00684267912392
10
48.042242135362429
20
-41.88248702614176
10
60.166597788344589
20
-48.882487026141739
0
ENDSEC
0
SECTION
2
OBJECTS
0
DICTIONARY
5
C
100
AcDbDictionary
3
ACAD_GROUP
350
D
3
ACAD_MLINESTYLE
350
17
0
DICTIONARY
5
D
100
AcDbDictionary
0
DICTIONARY
5
1A
330
C
100
AcDbDictionary
0
DICTIONARY
5
17
100
AcDbDictionary
0
ENDSEC
0
EOF
